<svg id="Layer_1" data-name="Layer 1" xmlns="http://www.w3.org/2000/svg" xmlns:xlink="http://www.w3.org/1999/xlink" viewBox="0 0 375 376"><defs><style>.cls-1,.cls-12{fill:none;}.cls-2{clip-path:url(#clip-path);}.cls-3{fill:#fff;}.cls-4{fill:#e1e2e2;}.cls-5{fill:#c8c7cc;}.cls-6{fill:#999ea3;}.cls-7{fill:#4cd964;}.cls-8{fill:#1896d3;}.cls-9{fill:#666;}.cls-10{fill:#ff3b30;}.cls-11{fill:#1f1f1f;fill-rule:evenodd;}.cls-12{stroke:#1f1f1f;}</style><clipPath id="clip-path"><rect class="cls-1" x="-1" width="376" height="376"/></clipPath></defs><title>background-map-01</title><g class="cls-2"><path class="cls-3" d="M375,0H-1V376H375Z"/><path class="cls-4" d="M27.12,150.27-1,125.88v2.58l25.38,22L.1,180.32-1,179.49V182L.42,183Z"/><path class="cls-4" d="M-1,217.35v3.2l12.89,16.81C7.06,242.76,2.68,247.43-1,251.25v2.82c4.21-4.35,9.48-10,15.44-16.6Z"/><path class="cls-4" d="M-1,331.5v2l4.54,1L-1,367.22V376h.75l6-43Z"/><path class="cls-4" d="M320.56,311.84h-1.48c-6.55,0-19-.86-34.59-2.23l1.67,28.15c25-.65,42.81-1.19,43.37-1.19h.05c.89,0,12.74.08,25.84,1.32a128,128,0,0,1,5.53-18.8C357.06,317.18,343.93,311.84,320.56,311.84Zm6.29,22.85c-6.56.19-20.87.6-38.84,1.05l-1.42-24c15.71,1.34,26.64,2,32.49,2h1.51c3.41,0,6.77.11,10,.35A93.83,93.83,0,0,1,326.85,334.69Zm27.07,1.11c-7.68-.68-14.77-.94-19.42-1.08a100.37,100.37,0,0,0,3.38-19.85,80,80,0,0,1,20.66,5.24A123.11,123.11,0,0,0,353.92,335.8Z"/><path class="cls-4" d="M34.69,213.84-1,186.23v2.47l32.9,25.46c-4.86,5.93-9.91,11.87-15,17.7L-1,208.6v3.19l17.72,23.1C22.31,228.66,28.38,221.57,34.69,213.84Z"/><path class="cls-4" d="M110.32,251.3,68.43,239.94l-31.08-24c-6.52,8-12.81,15.31-18.5,21.73l30.78,40.1c7.76,8.08,22.1,22.48,36.23,35.37l33-23.42C116,279.66,113,265.51,110.32,251.3Zm-64.1,18.78L21.4,237.71c5.56-6.28,11-12.7,16.3-19.12L63,238.2A224.17,224.17,0,0,0,46.22,270.08ZM54,279.45a224.07,224.07,0,0,1,18.72-36.31l35.91,9.75c2.87,15.31,5.56,27.42,8,36L86,310.6C71.84,297.58,58.86,284.42,54,279.45Z"/><path class="cls-4" d="M39.15,135.49-1,93.89v2.82l37.52,38.92L29,144.84l-30-26v2.57l30.24,26.24Z"/><path class="cls-4" d="M375,195.3v-2.12c-7.47-3.11-15-6.5-22.35-10.12L375,140.79v-4.17l-25,47.3C358.13,188,366.46,191.79,375,195.3Z"/><path class="cls-4" d="M239.48,25.7a93,93,0,0,1-13.4,26A107.17,107.17,0,0,1,206,72.81a544.39,544.39,0,0,0,60.73,57.29c5.18-4.09,11.17-8.52,17.83-13.08A299.58,299.58,0,0,1,328.89,91.8a236.13,236.13,0,0,1,28.6-11L322,35.16l2.66-2.07L361,79.82c4.7-1.37,9.4-2.55,14.05-3.57v-2c-4.4.94-8.86,2-13.32,3.33l-31.85-41c2-1.18,4.11-2.33,6.09-3.44A395,395,0,0,1,375,14.23V2.71a394,394,0,0,0-44.13,21,376.15,376.15,0,0,0-47.35,30.83c-4.24,3.25-8.38,6.61-12.41,10a149.75,149.75,0,0,0,6.61-21A163,163,0,0,0,281.91,0H271.2a152.39,152.39,0,0,1-3.9,41.33c-4.4,18.56-12.08,35-22.83,48.88-2.68,3-5.29,6-7.73,8.94l-.4.49c-.22.21-.43.43-.65.67-9.21-8.73-18.21-17.92-26.83-27.29a112.63,112.63,0,0,0,18.8-20.14,94.27,94.27,0,0,0,13.67-26.59A80.47,80.47,0,0,0,245.17.05h-1.93A78.43,78.43,0,0,1,239.48,25.7Zm12.43,72.22c19.07-21.14,43.14-40.5,71.61-57.63l30.72,39.58a245.9,245.9,0,0,0-26.16,10.21,300.65,300.65,0,0,0-44.61,25.38c-5.64,3.87-11.25,8-16.7,12.19-7.87-6.36-15.69-13.1-23.32-20.06C246.46,104.47,249.28,101.22,251.91,97.92Z"/><path class="cls-4" d="M365.2,148,375,129.4v-4.16l-10.29,19.47-41.6-44.18A228.54,228.54,0,0,1,375,81.73v-2A234.2,234.2,0,0,0,319.92,100Z"/><path class="cls-4" d="M346.05,245.21l29,14.1v-2.18l-26.3-12.78,23.45-44.42c1,.4,1.91.77,2.85,1.18V199c-1.26-.51-2.5-1-3.76-1.56Z"/><path class="cls-4" d="M166.83,318l-3.46,22.29c19.2-.22,42.83-.65,66.2-1.16-.48-1.48-1.16-3.65-1.91-6.39Zm-1.18,20.3,2.79-17.91,57.66,14c.3,1.08.6,2,.84,2.87C202.44,337.78,181.84,338.13,165.65,338.32Z"/><path class="cls-4" d="M281.08,309.31c-16.3-1.45-35.67-3.41-55.22-5.48a157.4,157.4,0,0,0,7.23,35.22c17.51-.41,34.75-.81,49.68-1.21Zm-46.6,27.77A157.64,157.64,0,0,1,228,306c20.06,2.12,37.28,3.81,51.19,5.07L280.7,336C264.38,336.39,248.82,336.76,234.48,337.08Z"/><path class="cls-4" d="M155.2,8.25a565,565,0,0,0,48.56,62.06,105.65,105.65,0,0,0,19.66-20.62c8-11.15,16.89-28.31,16.43-49.66h-2c.46,20.84-8.19,37.62-16.06,48.5A104.4,104.4,0,0,1,204,67.63,567.26,567.26,0,0,1,157.73,8.51c.83-.8,1.69-1.58,2.52-2.31a59.25,59.25,0,0,1,8.3-6.15H165a68.61,68.61,0,0,0-6,4.7C157.75,5.77,156.49,7,155.2,8.25Z"/><path class="cls-4" d="M38.16,209.54c7.06-8.81,14.77-19,22.58-30.13L29.67,152.47,3.08,185.07l33.73,26.11C37.27,210.64,37.7,210.1,38.16,209.54Zm-1.67-1L5.88,184.78l24-29.52,28.2,24.47c-6.71,9.53-13.94,19.15-21.48,28.6C36.57,208.38,36.55,208.44,36.49,208.49Z"/><path class="cls-4" d="M74.68,34.86,45.73,0H43.21l28.9,34.78L55,53.26-1,17.3v2.33L55.29,55.78Z"/><path class="cls-4" d="M157.11,1.85c.75-.64,1.48-1.26,2.2-1.82h-3.06c-.14.1-.27.24-.4.35-.73.61-1.45,1.29-2.21,2-.53-.81-1-1.59-1.5-2.31h-2.31c1,1.61,2.18,3.38,3.46,5.34C154.56,4.14,155.82,3,157.11,1.85Z"/><path class="cls-4" d="M51.34,120.56,54,122.71,31.85,149.86l30.83,26.78c14.56-21.14,29.19-45.63,40-71.25l-57.34-34L25.24,93.06l-2.47-2.31L52.93,58.28-1,23.63v2.31L49.92,58.66,25.27,85.22A373.13,373.13,0,0,1-1,51.38V69.69a453,453,0,0,0,47.59,53.58l-5.43,6.66L-1,86.21V89L41.3,132.89Zm11,53.15L34.53,149.62,51.94,128.3c8.19,7.65,16.73,15.06,25.38,22.1C72.67,158.05,67.65,165.9,62.3,173.71Zm-32.2-83L45.73,73.91l54.49,32.28a352.72,352.72,0,0,1-17.43,34.86c-9.72-7.92-19.2-16.27-28.14-24.87C46.13,108,37.89,99.45,30.1,90.72Z"/><path class="cls-4" d="M107.07,0h-2.66L77.1,29.41,52.69,0H50.14L77,32.36Z"/><path class="cls-4" d="M113.33,76.09c6.29-17.86,13.32-33.31,21-46A129,129,0,0,1,150.85,7.84c-2-3-3.65-5.61-5-7.81h-2.31c1.32,2.09,3,4.64,4.89,7.6a133.48,133.48,0,0,0-15.74,21.43c-7.25,12-14,26.51-20,43.13L81.8,35.08,114.35,0h-2.66L79.2,35Z"/><path class="cls-4" d="M234.4,342.43A96,96,0,0,1,237.73,353L313,367.54h40.1a111.7,111.7,0,0,1,1.69-26.32C342,340,330.31,340,329.64,339.93,325.66,340.07,281.27,341.35,234.4,342.43Zm76.87,22.8-72-13.94c-.7-2.68-1.48-5.05-2.12-7,37.6-.86,73.29-1.86,87.1-2.23A101.73,101.73,0,0,1,311.27,365.23ZM332.19,342c4,.08,11.76.32,20.33,1a113.13,113.13,0,0,0-1.45,22.59H320a105.3,105.3,0,0,0,11.76-22.45C331.89,342.75,332,342.35,332.19,342Z"/><path class="cls-4" d="M105.65,303.19,88.43,315.41c14.16,12.76,27.69,23.53,33.76,24.44,3.82.56,18.19.67,37.74.48l3.6-23.12Zm52.61,35.21c-5.23.05-10,.08-14.1.08-11.95,0-19.23-.19-21.64-.54-2.69-.4-10.24-3.86-30.94-22.32l14.5-10.31,55.24,13.4Z"/><path class="cls-4" d="M39.5,213.27,70,236.85l39.69,10.77c-4.56-25.08-8-49.17-8.06-49.58l3.36-.48c0,.16.7,4.94,1.86,12.38l71.57,11.68,2.17-13.93,3.33.51L176.31,257l50.33,6.82v0a58.12,58.12,0,0,1,23.42-30.24l1.85,2.85c-18.85,12.27-27.74,33.36-26.34,62.74,0,.43.05.83.05,1.26,19.87,2.09,39.59,4.08,56.08,5.56l63.7-120.51q-17.59-8.89-34.75-19.66L282.75,243l-3.17-1.15,13.72-38L249.44,190l1-3.22,44,14,13.29-36.82q-14.46-9.22-28.52-19.74c-4.22-3.14-8.38-6.39-12.55-9.7a251.24,251.24,0,0,0-20.06,17.6l-2.41-2.37A259.33,259.33,0,0,1,264,132.3a543.21,543.21,0,0,1-44.66-40.56L165.7,109.9l4.41,40-3.36.37-1.85-16.92-70.21-3c-4,7.71-8.38,15.55-13.16,23.44a541.62,541.62,0,0,1-40.77,57.91ZM266.68,137c3.77,3,7.58,5.93,11.37,8.75,8.94,6.69,18.12,13.06,27.31,19l-12.14,33.6-37.57-11.95a70.37,70.37,0,0,0,.67-9.51A67.47,67.47,0,0,0,251,150.53C254.06,147.69,259.43,142.83,266.68,137ZM107.18,244.91,77,236.72a219.89,219.89,0,0,1,24.07-29C102.4,216.55,104.58,230.41,107.18,244.91Zm69.56-25.51L108.5,208.25c-.43-2.79-.78-5.16-1-6.87,5.85-5.54,12.22-11,19-16.31a424.58,424.58,0,0,0,51.48,26.81Zm48.61,42.27-46.81-6.34,6.28-40.47a418.27,418.27,0,0,0,41,14.55c6.33,1.88,12.59,3.82,18.63,5.75A60,60,0,0,0,225.35,261.67Zm86.32-93c10.21,6.31,20.63,12.22,31.1,17.56l-33,62.5c-7.31-3.39-15.15-6.74-23.37-10Zm-7,89.54L280.6,303.89c-14.29-1.29-32.15-3.06-53.1-5.27-1.24-28.41,7.33-48.8,25.49-60.58l.08-.06A516.33,516.33,0,0,1,304.71,258.26Zm-50.46-64.7,36.53,11.6-11.2,31c-12.55-4.78-26.16-9.46-40.53-13.91A68,68,0,0,0,254.25,193.56Zm6.63-61.24c-5.58,4.54-10,8.47-13.16,11.37a68.51,68.51,0,0,0-19.87-22.32q5.44-4.11,10.39-8.68C245.63,119.49,253.23,126.07,260.88,132.32Zm-93.06-21L218.8,94c3.81,3.84,7.71,7.68,11.66,11.41a134.32,134.32,0,0,1-24,17.27c-3.58,2-7.23,4.09-10.77,6.07l-.11.06c-7.92,4.45-16.12,9-24.28,13.8Zm32.93,26.83.05,0c3.58-2,7.26-4,10.85-6.09,2.26-1.29,4.54-2.64,6.75-4.06a57.61,57.61,0,0,1,9.13,90.88,406.93,406.93,0,0,1-91.88-40.66C156.79,162.75,179.13,150.24,200.75,138.1Zm-104.9-5.75,67.27,2.93,1.27,11.36a448,448,0,0,0-38.57,25.41,449.19,449.19,0,0,1-37.25-26.38C91.12,141.19,93.56,136.73,95.85,132.35ZM42.27,212.92A545.25,545.25,0,0,0,83.09,155c10.93,8.57,22.24,16.63,33.71,24C96.55,195.25,80.24,212.65,67,232.1Z"/><path class="cls-4" d="M176,237.18l-62.2,14.07c2.61,13.94,5.53,27.77,8.38,37.55,4.48.53,22,2.57,45,5.18ZM123.64,287c-2.31-8.16-4.86-19.68-7.62-34.26l57.58-13-8.11,52.1C145.4,289.55,129.63,287.69,123.64,287Z"/><path class="cls-4" d="M356.47,367.54H375v-2H358.35a106.31,106.31,0,0,1,1.42-21.89A134.82,134.82,0,0,1,375,346.21v-2a145.12,145.12,0,0,0-16.87-2.66A108.56,108.56,0,0,0,356.47,367.54Z"/><path class="cls-4" d="M109.3,300.58,164,313.85l2.58-16.52c-23.5-2.65-41.28-4.75-45.34-5.23ZM164.39,299l-1.94,12.4L114,299.67l7.87-5.58C127.32,294.76,143.38,296.66,164.39,299Z"/><path class="cls-4" d="M323.46,234.22,343,243.73l25.14-47.65c-6.6-2.84-13.19-5.88-19.71-9.13Zm42-37.17-23.26,44.1-16-7.81,23.15-43.81C354.64,192.16,360,194.69,365.44,197.05Z"/><path class="cls-4" d="M177.87,225l-70.53-11.52c1.45,9.37,3.49,21.81,5.8,34.43l63.39-14.34Zm-3.06,7L114.7,245.55c-2-11-3.76-21.8-5-29.73l65.93,10.77Z"/><path class="cls-4" d="M165.33,106.49l51.37-17.4q-6.81-7-13.42-14.29l-.41-.46-40.71,3.14Zm47.8-18.26L167,103.86l-2.71-24.6L202,76.35C205.67,80.36,209.4,84.33,213.13,88.23Z"/><path class="cls-4" d="M110.46,84.63c.53-1.61,1.07-3.23,1.61-4.81L76.89,37.49,47.72,68.89,104,102.22Q107.53,93.48,110.46,84.63ZM50.78,68.43l26-28,33.06,39.77c-.43,1.32-.86,2.55-1.26,3.79-1.64,5-3.49,10.15-5.56,15.33Z"/><path class="cls-4" d="M321.88,237.2l-36.5,69.08c15.6,1.37,27.93,2.2,34.13,2.17,24.39-.16,38.11,5.24,42.71,7.47a104.24,104.24,0,0,1,9.64-18.59l1.39,1,1.4,1a107,107,0,0,0-10.15,20.09,125.41,125.41,0,0,0-5.67,18.85,151.85,151.85,0,0,1,16.2,2.53v-2c-4-.86-8.6-1.61-13.83-2.23a115.62,115.62,0,0,1,5.1-16.46,119.64,119.64,0,0,1,6.39-13.75c.89,1.29,1.67,2.47,2.34,3.59V292.23q-3.06-3.37-6.77-6.77C356.5,274.64,340.43,264,320.45,254c-1.34-.67-2.71-1.37-4.16-2.07l6.42-12.11L375,265.24v-2.17ZM360,292.31a99.91,99.91,0,0,1,7.84,7.84,120,120,0,0,0-6.6,13.17c-4.28-1.83-11.82-4.36-23.1-5.78,0-1.91-.05-3.81-.16-5.69a111.72,111.72,0,0,0-5.67-29.28A173.51,173.51,0,0,1,360,292.31ZM322.25,267a103.44,103.44,0,0,1,8.41,35.29c.08,1.5.13,3.06.16,4.59-3.33-.21-6.77-.35-10.23-.35h-1.51c-5.45,0-15.73-.64-30.61-1.9l22.83-43.22C315.08,263.23,318.76,265.11,322.25,267Z"/><path class="cls-4" d="M363.53,151.18,316.8,101.57a309.33,309.33,0,0,0-30.32,18.27c-6.34,4.32-12,8.54-17,12.46A459.14,459.14,0,0,0,347,182.44ZM272.62,132.3c4.89-3.76,9.91-7.41,15-10.85A305,305,0,0,1,316.4,104l44.74,47.51-15,28.31A455.92,455.92,0,0,1,272.62,132.3Z"/><path class="cls-4" d="M158.75,77.72l-43.57,3.36q-.77,2.27-1.53,4.59A295.1,295.1,0,0,1,96.36,127l68.13,3Zm-43.24,8.57c.35-1.1.72-2.23,1.1-3.36L157,79.82,162.32,128l-62.85-2.71A297.1,297.1,0,0,0,115.51,86.29Z"/><path class="cls-4" d="M152.81,10.74c-10.71,11.55-24.06,31.75-36.39,66.85L200,71.17A567.11,567.11,0,0,1,152.81,10.74Zm-.24,3.15a576.66,576.66,0,0,0,43.32,55.62l-76.68,5.9C128.85,48.77,140.05,28.09,152.57,13.89Z"/><path class="cls-4" d="M111.32,369.71l1,6.32h2l-.72-4.25,39.13,2-.35,2.29h2l.64-4.14Z"/><path class="cls-4" d="M230.78,342.51c-23.93.54-48.27,1-67.95,1.18l-5,32.34h2l4.73-30.41c17-.18,38.81-.56,65-1.12,2,5.18,6.74,19.58,4.56,31.55h2C238.32,362.55,232.44,346.64,230.78,342.51Z"/><path class="cls-4" d="M175.77,260.33l-5.29,34c15.71,1.77,33.71,3.76,51.73,5.66,0-.21,0-.42,0-.64-.56-12,.57-22.8,3.41-32.28Zm44.4,37.52c-14.58-1.56-30.54-3.31-47.43-5.21l4.67-30.11,45.69,6.18A100.14,100.14,0,0,0,220.17,297.85Z"/><path class="cls-4" d="M57,367l.17-3.39,98.4,4.94,3.87-24.81c-19.45.16-33.79,0-37.71-.54-6.07-.91-18.21-9.56-36.1-25.76L49.36,343.18l-2-2.77,35.66-25.32c-1.61-1.48-3.25-3-5-4.6-16.27-15.22-30.8-30.37-30.94-30.5l-.1-.14L16.56,240.21C9.53,248,3.49,254.36-1,258.93v2.79c4.27-4.32,10.31-10.61,17.4-18.45L43,277.89a284.64,284.64,0,0,0-15,54.74L-1,326v2l34,7.71-.75,3.31L9,333.78,3.19,376h2l5.53-39.89,16.17,3.66c-1.74,11.52-3,23.66-3.68,36.23H33.86a350.17,350.17,0,0,1,7-53,129.67,129.67,0,0,0,6.55,29A122.48,122.48,0,0,0,59,376h8.73c-1.51-2.2-3-4.46-4.3-6.77l42.76,2.15L107,376h2l-1.07-6.5ZM47.75,296.8c1.07-3.31,2.2-6.63,3.41-9.91,5.8,5.88,15.33,15.44,25.59,25,1,1,2.12,2,3.2,3l-29.6,21a125.73,125.73,0,0,1-2.66-17.27A128.3,128.3,0,0,1,47.75,296.8Zm37.7,23.12c17.78,16,29.57,24.23,36,25.19,2.79.43,10.39.62,23.2.62,3.71,0,7.92,0,12.49-.05l-3.23,20.81L59.4,361.77a120.23,120.23,0,0,1-7.09-18.29Z"/><path class="cls-4" d="M312.67,370.92l-.17,0-74-14.35a55.09,55.09,0,0,1,.91,19.48h2a55,55,0,0,0-.45-17l65.12,12.62c-1.26,1.48-2.6,2.93-4,4.38h9.83c.89-1,1.77-2.1,2.61-3.14H351.5c.11,1,.19,2.12.3,3.14h2c-.19-1.7-.35-3.44-.49-5.11Z"/><path class="cls-4" d="M357.22,376h2c-.11-1-.21-2.1-.32-3.14H375v-2H356.74C356.87,372.59,357,374.33,357.22,376Z"/><path class="cls-4" d="M222.45,303.49c-18.26-1.94-36.55-4-52.48-5.78l-2.63,17L226.7,329A160.44,160.44,0,0,1,222.45,303.49Zm-50.84-3.63c17.51,2,34,3.79,49,5.4A159.4,159.4,0,0,0,224,326.39l-54.5-13.21Z"/><path class="cls-3" d="M364.5,319.36a107,107,0,0,1,10.15-20.09l-1.4-1-1.39-1a104.24,104.24,0,0,0-9.64,18.59c-4.6-2.23-18.32-7.63-42.71-7.47-6.2,0-18.53-.8-34.13-2.17l36.5-69.08L375,263.07V259.3l-29-14.09,25.22-47.81c1.26.54,2.49,1,3.76,1.56V195.3c-8.57-3.54-16.9-7.35-25-11.36l25-47.29V129.4L365.2,148l-45.26-48a234.36,234.36,0,0,1,55.11-20.25V76.25c-4.64,1-9.34,2.2-14,3.57L324.72,33.09l-2.65,2.07,35.42,45.71a239.41,239.41,0,0,0-28.6,10.95A297.18,297.18,0,0,0,284.57,117c-6.66,4.54-12.62,9-17.83,13.08A546.24,546.24,0,0,1,206,72.84a107.32,107.32,0,0,0,20.07-21.09,93,93,0,0,0,13.4-26A78.53,78.53,0,0,0,243.24.05h-3.39c.46,21.35-8.37,38.52-16.43,49.64a105.94,105.94,0,0,1-19.66,20.62A564,564,0,0,1,155.2,8.24c1.32-1.31,2.55-2.47,3.76-3.51A65,65,0,0,1,165,0h-5.67c-.72.56-1.45,1.18-2.2,1.82-1.29,1.1-2.55,2.29-3.81,3.52-1.26-2-2.42-3.73-3.47-5.34h-4c1.4,2.2,3.06,4.83,5,7.81a130.13,130.13,0,0,0-16.54,22.24c-7.66,12.7-14.7,28.15-21,46L79.2,35,111.69,0h-4.62L77,32.36,50.14,0H45.73l29,34.83L55.27,55.75-1,19.63v4l53.9,34.65L22.77,90.78l2.47,2.31L45.36,71.44l57.31,34c-10.8,25.62-25.44,50.14-40,71.25L31.79,149.86l22.13-27.15-2.63-2.15-10,12.3L-1,89v4.86l40.12,41.63-9.88,12.14L-1,121.39v4.49l28.09,24.38L.4,183-1,182v4.27l35.67,27.61c-6.32,7.76-12.38,14.82-17.94,21.08L-1,211.82v5.56L14.44,237.5C8.51,244.1,3.24,249.72-1,254.07v4.86c4.46-4.57,10.5-10.91,17.53-18.72L47,279.88l.11.13c.13.16,14.66,15.28,30.94,30.51q2.54,2.39,5,4.59L47.37,340.44l2,2.77,36.26-25.76c17.88,16.17,30,24.84,36.09,25.76,3.93.59,18.27.69,37.71.53l-3.87,24.82-98.4-4.94L57,367l50.86,2.55,1.08,6.5h3.46l-1-6.31,43.72,2.2-.64,4.14h3.41l5-32.34c19.68-.18,44-.64,67.95-1.18,1.66,4.17,7.52,20,5.23,33.52h3.44c.89-5.64.57-12.14-.91-19.47l74,14.34.17,0h40.66c.13,1.66.29,3.41.48,5.1h3.41c-.19-1.69-.35-3.44-.48-5.1H375v-3.39H356.47a108.6,108.6,0,0,1,1.69-26A145.12,145.12,0,0,1,375,344.28v-3.46a144.6,144.6,0,0,0-16.2-2.53A123.85,123.85,0,0,1,364.5,319.36Zm3.65-123.28L343,243.73l-19.55-9.51,25-47.27Q358.22,191.83,368.15,196.08Zm-81.67-76.24a309.33,309.33,0,0,1,30.32-18.27l46.73,49.61L347,182.41a457.54,457.54,0,0,1-77.54-50.14C274.45,128.4,280.14,124.16,286.48,119.84Zm-83.23-45c4.43,4.86,8.89,9.61,13.43,14.28L165.3,106.49l-3.2-29,40.72-3.14C203,74.5,203.11,74.64,203.25,74.8ZM152.81,10.74A567.11,567.11,0,0,0,200,71.17l-83.61,6.42C128.72,42.49,142.1,22.29,152.81,10.74ZM47.72,68.89l29.17-31.4,35.18,42.33c-.54,1.58-1.08,3.19-1.61,4.81-1.91,5.9-4.08,11.76-6.45,17.59Zm65.93,16.78c.51-1.55,1-3.09,1.53-4.59l43.57-3.36L164.49,130l-68.13-3A290.11,290.11,0,0,0,113.65,85.67ZM81.51,153.81q7.17-11.88,13.16-23.45l70.2,3,1.85,16.92,3.36-.38-4.4-40,53.6-18.16A539.78,539.78,0,0,0,264,132.32a240.76,240.76,0,0,0-19.77,17.41l2.42,2.36a254.89,254.89,0,0,1,20.06-17.59c4.16,3.3,8.32,6.55,12.54,9.7q14.06,10.52,28.52,19.73l-13.29,36.83-44-14-1,3.23,43.85,13.94-13.72,38,3.17,1.16,27.9-77.27q17.16,10.76,34.76,19.66L281.67,306c-16.49-1.48-36.2-3.47-56.08-5.56,0-.43-.05-.84-.05-1.27-1.4-29.35,7.47-50.46,26.35-62.73L250,233.55a58,58,0,0,0-23.42,30.24v0L176.28,257l7.58-48.77-3.33-.51-2.18,13.94L106.78,210c-1.13-7.41-1.83-12.2-1.85-12.38l-3.36.48c.05.4,3.49,24.49,8.05,49.58L69.93,236.88,39.5,213.27c.43-.51.83-1.05,1.26-1.56A547,547,0,0,0,81.51,153.81Zm40.63,135c-2.85-9.77-5.77-23.6-8.38-37.54L176,237.18,167.13,294C144.14,291.37,126.6,289.3,122.14,288.79Zm44.48,8.54L164,313.85,109.3,300.58l12-8.48C125.34,292.58,143.12,294.68,166.62,297.33Zm-53.48-49.41c-2.31-12.63-4.35-25.09-5.8-34.43L177.87,225l-1.34,8.59Zm109,51.46c0,.21,0,.43,0,.64-18-1.91-36-3.89-51.73-5.67l5.29-34,49.8,6.74C222.77,276.57,221.62,287.42,222.18,299.38ZM170,297.71c15.93,1.8,34.22,3.81,52.48,5.77a160.28,160.28,0,0,0,4.25,25.57l-59.36-14.37ZM3.08,185.1l26.59-32.61,31.05,26.94c-7.79,11.15-15.53,21.33-22.59,30.14-.43.56-.89,1.1-1.32,1.63Zm46.55,92.63-30.78-40.1c5.69-6.42,12-13.72,18.5-21.73l31.08,24,41.89,11.36c2.64,14.21,5.62,28.36,8.54,38.35l-33,23.42C71.73,300.18,57.39,285.81,49.63,277.73Zm110.3,62.6c-19.55.19-33.92.08-37.74-.48-6.07-.91-19.6-11.68-33.76-24.44l17.22-12.22,57.88,14Zm3.44-.05L166.83,318l60.83,14.74c.75,2.74,1.43,4.92,1.91,6.39C206.2,339.64,182.57,340.09,163.37,340.28Zm62.49-36.45c19.55,2.07,38.92,4,55.22,5.48l1.69,28.55c-14.93.38-32.17.81-49.68,1.21A159.16,159.16,0,0,1,225.86,303.83Zm127.22,63.71H313L237.71,353a87.9,87.9,0,0,0-3.33-10.53c46.86-1.05,91.28-2.34,95.23-2.47.67,0,12.33.1,25.17,1.29A112.92,112.92,0,0,0,353.08,367.54Zm2.37-29.65c-13.11-1.24-24.95-1.29-25.84-1.32h-.05c-.59,0-18.4.54-43.38,1.19l-1.66-28.15c15.58,1.37,28,2.23,34.59,2.23h1.48c23.36,0,36.5,5.37,40.42,7.25A120.16,120.16,0,0,0,355.45,337.89Z"/><path class="cls-3" d="M32.25,339.05l.75-3.31L-1,328v3.47L5.74,333l-6,43H3.19L9,333.78Z"/><path class="cls-5" d="M228,306a162.28,162.28,0,0,0,6.44,31c14.34-.32,29.87-.69,46.22-1.12l-1.47-24.85C265.29,309.85,248.1,308.13,228,306Z"/><path class="cls-4" d="M351,365.61A115.26,115.26,0,0,1,352.49,343c-8.56-.73-16.27-1-20.33-1-.13.41-.29.81-.43,1.21A104.61,104.61,0,0,1,320,365.63H351Z"/><path class="cls-4" d="M177.41,262.53l-4.67,30.11c16.92,1.9,32.85,3.65,47.43,5.21a100.14,100.14,0,0,1,2.93-29.14Z"/><path class="cls-5" d="M364.6,144l10.29-19.47V81A230.16,230.16,0,0,0,323,99.8Z"/><path class="cls-4" d="M237.17,344.31c.67,1.93,1.42,4.3,2.12,7l72,13.94a101.73,101.73,0,0,0,13-23.15C310.44,342.45,274.77,343.45,237.17,344.31Z"/><path class="cls-4" d="M255.65,186.36l37.57,11.95,12.14-33.6c-9.21-5.9-18.4-12.3-27.31-19-3.79-2.82-7.6-5.77-11.37-8.75-7.25,5.85-12.59,10.69-15.63,13.53a67.55,67.55,0,0,1,5.3,26.32A72.06,72.06,0,0,1,255.65,186.36Z"/><path class="cls-4" d="M116,252.73c2.76,14.61,5.31,26.1,7.62,34.26,6,.7,21.73,2.56,41.85,4.81l8.11-52.1Z"/><path class="cls-6" d="M168.41,320.41l-2.79,17.91c16.2-.19,36.8-.54,61.29-1.08-.24-.83-.54-1.79-.83-2.87Z"/><path class="cls-4" d="M279.58,236.13l11.2-31-36.53-11.6a68.2,68.2,0,0,1-15.2,28.68C253.42,226.7,267,231.35,279.58,236.13Z"/><path class="cls-5" d="M220.65,305.23c-15-1.61-31.53-3.41-49-5.4l-2.07,13.32,54.49,13.22A155.52,155.52,0,0,1,220.65,305.23Z"/><path class="cls-4" d="M316.32,251.92l4.16,2.07c19.95,10.07,36,20.65,47.81,31.47q3.66,3.39,6.76,6.77v-27l-52.31-25.43Z"/><path class="cls-4" d="M348.73,244.35,375,257.13v-56c-.94-.38-1.91-.78-2.85-1.18Z"/><path class="cls-4" d="M375,193.21V140.84l-22.35,42.27C360.07,186.71,367.56,190.1,375,193.21Z"/><path class="cls-7" d="M366.3,320.06a115.62,115.62,0,0,0-5.1,16.46c5.23.62,9.85,1.37,13.83,2.23V309.9c-.67-1.12-1.43-2.33-2.34-3.59A124.68,124.68,0,0,0,366.3,320.06Z"/><path class="cls-4" d="M337.86,314.87a99.19,99.19,0,0,1-3.39,19.85c4.65.11,11.74.4,19.42,1.08a129.09,129.09,0,0,1,4.59-15.69A79,79,0,0,0,337.86,314.87Z"/><path class="cls-4" d="M338.1,307.54c11.28,1.42,18.85,3.95,23.1,5.78a120,120,0,0,1,6.6-13.17,99.91,99.91,0,0,0-7.84-7.84,172.52,172.52,0,0,0-27.72-19.74,111.72,111.72,0,0,1,5.67,29.28C338.05,303.73,338.1,305.63,338.1,307.54Z"/><path class="cls-4" d="M184.82,214.86l-6.28,40.47,46.81,6.34a60.23,60.23,0,0,1,19.15-26.54c-6-2-12.3-3.89-18.64-5.74A414.22,414.22,0,0,1,184.82,214.86Z"/><path class="cls-4" d="M253,238c-18.15,11.78-26.72,32.17-25.49,60.58,20.95,2.21,38.81,4,53.1,5.27l24.12-45.63A522.42,522.42,0,0,0,253,238Z"/><path class="cls-4" d="M34.53,149.62,62.3,173.71c5.35-7.81,10.4-15.66,15-23.34-8.65-7-17.19-14.42-25.38-22.1Z"/><path class="cls-4" d="M152.57,13.89c-12.52,14.2-23.72,34.86-33.33,61.52l76.68-5.9A569.37,569.37,0,0,1,152.57,13.89Z"/><path class="cls-4" d="M195.54,128.78l.11-.05,10.77-6.07a132.36,132.36,0,0,0,24-17.27c-3.92-3.74-7.84-7.58-11.66-11.42l-51,17.27,3.46,31.32C179.43,137.83,187.62,133.24,195.54,128.78Z"/><path class="cls-8" d="M247.7,143.69c3.17-2.9,7.6-6.83,13.16-11.37-7.63-6.23-15.26-12.83-22.67-19.63-3.28,3-6.77,5.94-10.39,8.68A68.14,68.14,0,0,1,247.7,143.69Z"/><path class="cls-4" d="M167,103.86l46.14-15.63Q207.49,82.38,202,76.35l-37.73,2.91Z"/><path class="cls-4" d="M54.62,116.16c8.94,8.59,18.43,17,28.15,24.87a346.24,346.24,0,0,0,17.43-34.86L45.7,73.91,30.07,90.72C37.89,99.45,46.13,108,54.62,116.16Z"/><path class="cls-4" d="M342.18,241.15l23.26-44.1c-5.4-2.36-10.82-4.86-16.17-7.49l-23.15,43.8Z"/><path class="cls-4" d="M157,79.82l-40.4,3.11c-.37,1.16-.75,2.26-1.1,3.36a291.91,291.91,0,0,1-16.06,38.95L162.32,128Z"/><path class="cls-5" d="M109.84,80.22l-33-39.77-26,28L103,99.37C105.11,94.19,107,89,108.6,84,109,82.8,109.41,81.54,109.84,80.22Z"/><path class="cls-4" d="M316.4,104a305,305,0,0,0-28.82,17.46c-5.05,3.44-10.07,7.09-15,10.85a457.28,457.28,0,0,0,73.56,47.51l15-28.31Z"/><path class="cls-4" d="M106.05,305.29,91.55,315.6c20.71,18.45,28.25,21.91,30.94,22.32,2.42.37,9.69.53,21.65.53,4.13,0,8.86,0,14.1-.08l3.06-19.71Z"/><path class="cls-4" d="M153.88,366.49l3.23-20.81c-4.59,0-8.78.05-12.49.05-12.81,0-20.41-.21-23.2-.62-6.4-1-18.19-9.21-36-25.19L52.31,343.45a114.91,114.91,0,0,0,7.09,18.29Z"/><path class="cls-4" d="M29.91,155.26l-24,29.52,30.64,23.71c0-.05.08-.11.13-.16,7.55-9.43,14.78-19,21.49-28.6Z"/><path class="cls-4" d="M162.45,311.46l1.94-12.41c-21-2.39-37.07-4.27-42.6-4.91l-7.87,5.59Z"/><path class="cls-4" d="M50.35,335.93l29.6-21q-1.62-1.5-3.2-3c-10.26-9.62-19.82-19.15-25.59-25q-1.81,4.9-3.41,9.91a125.63,125.63,0,0,0,0,21.86A121.48,121.48,0,0,0,50.35,335.93Z"/><path class="cls-4" d="M283.47,115.43a302.17,302.17,0,0,1,44.61-25.38,248,248,0,0,1,26.16-10.2L323.52,40.26C295.07,57.39,271,76.78,251.91,97.89a127.52,127.52,0,0,1-8.46,9.65c7.63,6.95,15.45,13.69,23.32,20.06C272.22,123.38,277.83,119.3,283.47,115.43Z"/><path class="cls-8" d="M37.67,218.59c-5.26,6.42-10.74,12.84-16.3,19.12l24.85,32.34A228.24,228.24,0,0,1,63,238.17Z"/><path class="cls-4" d="M155.82.38c.13-.11.27-.25.4-.35h-4.11c.49.75,1,1.5,1.51,2.31C154.37,1.67,155.12,1,155.82.38Z"/><path class="cls-4" d="M319.54,313.8h-.48c-5.86,0-16.79-.67-32.5-2l1.42,24c18-.46,32.29-.86,38.84-1a93.89,93.89,0,0,0,3.76-20.57c-3.25-.24-6.61-.35-10-.35A5.79,5.79,0,0,0,319.54,313.8Z"/><path class="cls-4" d="M314.57,372.89c-.86,1-1.72,2.09-2.6,3.14h39.88c-.11-1-.22-2.1-.3-3.14Z"/><path class="cls-4" d="M359.18,376H375v-3.14H358.86C359,373.93,359.07,375,359.18,376Z"/><path class="cls-4" d="M288.47,304.59c14.85,1.26,25.14,1.9,30.61,1.9h1.51c3.46,0,6.9.11,10.23.35,0-1.53-.05-3.06-.16-4.59A102.92,102.92,0,0,0,322.25,267c-3.49-1.88-7.17-3.73-10.95-5.59Z"/><path class="cls-8" d="M358.35,365.61H375V346.24a134.82,134.82,0,0,0-15.26-2.52A106.14,106.14,0,0,0,358.35,365.61Z"/><path class="cls-4" d="M241,359a54.75,54.75,0,0,1,.46,17h60.72c1.37-1.45,2.69-2.9,4-4.38Z"/><path class="cls-4" d="M113.63,371.78l.72,4.25h38.06l.35-2.29Z"/><path class="cls-4" d="M229.46,344.47c-26.16.56-48,1-65,1.13L159.77,376H234C236.2,364.05,231.42,349.68,229.46,344.47Z"/><path class="cls-4" d="M164.39,146.64l-1.27-11.36-67.3-2.9c-2.28,4.38-4.73,8.83-7.28,13.29a454.27,454.27,0,0,0,37.25,26.38A448.79,448.79,0,0,1,164.39,146.64Z"/><path class="cls-4" d="M77,236.72l30.19,8.19c-2.6-14.53-4.78-28.39-6.12-37.22A220.27,220.27,0,0,0,77,236.72Z"/><path class="cls-4" d="M116.8,179c-11.47-7.41-22.78-15.47-33.71-24a541.5,541.5,0,0,1-40.8,57.93v0L67,232.1C80.22,212.65,96.55,195.25,116.8,179Z"/><path class="cls-8" d="M108.63,252.86l-35.91-9.75A224.07,224.07,0,0,0,54,279.42c4.84,5,17.81,18.13,32,31.13l30.59-21.73C114.19,280.28,111.5,268.2,108.63,252.86Z"/><path class="cls-4" d="M114.7,245.55,174.81,232l.83-5.37-66-10.77C110.94,223.75,112.69,234.52,114.7,245.55Z"/><path class="cls-4" d="M107.48,201.38c.24,1.71.59,4.05,1,6.87l68.24,11.15,1.16-7.5a433.38,433.38,0,0,1-51.49-26.8C119.7,190.36,113.33,195.84,107.48,201.38Z"/><path class="cls-7" d="M227.55,218.78a57.61,57.61,0,0,0-9.13-90.89c-2.23,1.43-4.48,2.77-6.74,4.06-3.6,2-7.28,4.11-10.85,6.1l-.05,0c-21.62,12.14-44,24.68-65.08,40A406,406,0,0,0,227.55,218.78Z"/><path class="cls-4" d="M63.43,369.26c1.34,2.31,2.79,4.57,4.3,6.77H107l-.78-4.62Z"/><path class="cls-4" d="M342.77,186.28c-10.45-5.34-20.89-11.25-31.1-17.56l-25.3,70.07c8.22,3.25,16.06,6.6,23.37,10Z"/><path class="cls-8" d="M157.73,8.51A564.09,564.09,0,0,0,204,67.63a105.09,105.09,0,0,0,17.86-19.1C229.7,37.65,238.35,20.87,237.89,0H168.55a59.1,59.1,0,0,0-8.3,6.15C159.42,6.9,158.56,7.68,157.73,8.51Z"/><path class="cls-4" d="M46.62,123.27A454.57,454.57,0,0,1-1,69.69V86.21l42.16,43.72Z"/><path class="cls-4" d="M49.92,58.68-1,26V51.38A370.26,370.26,0,0,0,25.27,85.22Z"/><path class="cls-4" d="M31.93,214.13-1,188.7v19.9l17.83,23.23C22,226,27,220.07,31.93,214.13Z"/><path class="cls-4" d="M72.11,34.81,43.21,0H-1V17.3L55,53.26Z"/><path class="cls-4" d="M24.41,150.51-1,128.46v51l1.07.83Z"/><path class="cls-4" d="M36.55,135.63-1,96.71v22.11l30,26Z"/><path class="cls-4" d="M241.33,26.29a94.27,94.27,0,0,1-13.67,26.59A111.56,111.56,0,0,1,208.86,73c8.62,9.38,17.62,18.56,26.83,27.29.22-.21.43-.46.65-.67l.4-.48c2.47-3,5-6,7.74-9,10.74-13.88,18.42-30.32,22.82-48.88A152.3,152.3,0,0,0,271.2,0h-26A79.72,79.72,0,0,1,241.33,26.29Z"/><path class="cls-4" d="M104.41,0H52.69L77.1,29.41Z"/><path class="cls-5" d="M112.66,72.22a250.41,250.41,0,0,1,20-43.13A132.69,132.69,0,0,1,148.38,7.65c-1.93-2.95-3.57-5.5-4.89-7.6H114.35l-32.55,35Z"/><path class="cls-7" d="M277.75,43.56a145.89,145.89,0,0,1-6.61,21c4-3.41,8.17-6.74,12.41-10A379.5,379.5,0,0,1,330.9,23.69,386.14,386.14,0,0,1,375,2.71V0H281.91A163,163,0,0,1,277.75,43.56Z"/><path class="cls-4" d="M329.83,36.55l31.85,41c4.46-1.26,8.92-2.39,13.32-3.33v-60a390.55,390.55,0,0,0-39.1,18.88C333.94,34.22,331.89,35.37,329.83,36.55Z"/><path class="cls-4" d="M10.68,336.14,5.15,376h18c.7-12.55,1.94-24.68,3.68-36.23Z"/><path class="cls-4" d="M-1,220.55v30.7c3.65-3.82,8-8.49,12.89-13.89Z"/><path class="cls-4" d="M40.79,323a352,352,0,0,0-7,53H59a119.74,119.74,0,0,1-11.63-24.09A133.08,133.08,0,0,1,40.79,323Z"/><path class="cls-7" d="M43,277.86,16.43,243.24C9.34,251.09,3.3,257.37-1,261.7V326l29,6.58A285.7,285.7,0,0,1,43,277.86Z"/><path class="cls-4" d="M-1,333.48v33.74l4.54-32.69Z"/><path class="cls-3" d="M375,295.16a103.93,103.93,0,0,0-8.09-8.27c-11.63-10.72-27.55-21.19-47.35-31.18-22.93-11.55-51.19-22.48-84.11-32.53a66.32,66.32,0,0,0-11-101.76,131.86,131.86,0,0,0,26-24.79C277.75,66.34,311,44.61,335,31.37a389.55,389.55,0,0,1,40-19.28V4.81a385.77,385.77,0,0,0-43.18,20.6,375.65,375.65,0,0,0-47.11,30.67q-9.92,7.61-18.85,15.66a143.09,143.09,0,0,0,10-28.61A159.94,159.94,0,0,0,280,0h-6.79a154.59,154.59,0,0,1-4,41.76C264.73,60.72,256.94,77.32,246,91.48q-4,4.42-7.74,8.94l.06,0a131.15,131.15,0,0,1-30.94,23.93c-3.6,2-7.31,4.11-10.88,6.12-23.42,13.13-47.8,26.83-70.58,43.91a460.16,460.16,0,0,1-72.62-56.83C25,90.37,6.76,66-1,54.82v11.6a449.31,449.31,0,0,0,49.39,55.86,462.29,462.29,0,0,0,71.71,56.56c-48.88,38.49-89.22,94.3-95,197.19h6.76A335.56,335.56,0,0,1,41.92,309.8c0,2.87.19,5.93.45,9.18a129.31,129.31,0,0,0,6.83,32.31A117.54,117.54,0,0,0,61.31,376h4C51.53,355.35,47,333.92,45.76,318.82a130.53,130.53,0,0,1,.05-22.4C62.68,243.54,92.49,209,126.3,182.71a417.25,417.25,0,0,0,100.1,44.82c44,13,75.23,26.16,97.36,38a106,106,0,0,1,8.83,36.58c1.1,19.37-3.11,47.14-27.77,73.89h4.57a108.06,108.06,0,0,0,20.52-33.58A98.44,98.44,0,0,0,336,301.93a109.52,109.52,0,0,0-7.42-33.76c15.1,8.48,25.52,16.22,32.69,22.67A82.88,82.88,0,0,1,375,306.23V295.16ZM228.07,221a409,409,0,0,1-95.91-42.67c21.89-16.22,45.2-29.3,67.62-41.87l10.91-6.13c2.63-1.47,5.18-3,7.68-4.64a59.52,59.52,0,0,1,9.7,95.31Z"/></g><path class="cls-9" d="M225.29,203.34a.31.31,0,0,1,.25.31v9.46L226,215l.46-1.89v-9.46a.31.31,0,0,1,.25-.31A5.16,5.16,0,0,0,231,198.2a5,5,0,1,0-10,0A5.16,5.16,0,0,0,225.29,203.34Z"/><path class="cls-9" d="M71.29,215.34a.31.31,0,0,1,.26.31v9.46L72,227l.45-1.89v-9.46a.31.31,0,0,1,.26-.31A5.16,5.16,0,0,0,77,210.2a5,5,0,1,0-10,0A5.16,5.16,0,0,0,71.29,215.34Z"/><path class="cls-10" d="M125.71,146.79a.56.56,0,0,1,.47.57v17.21L127,168l.82-3.43V147.36a.56.56,0,0,1,.47-.57,9.34,9.34,0,0,0,7.71-9.34,9,9,0,1,0-18,0A9.34,9.34,0,0,0,125.71,146.79Z"/><path class="cls-9" d="M343.29,271.34a.31.31,0,0,1,.26.31v9.46L344,283l.45-1.89v-9.46a.31.31,0,0,1,.26-.31A5.16,5.16,0,0,0,349,266.2a5,5,0,1,0-10,0A5.16,5.16,0,0,0,343.29,271.34Z"/><path class="cls-11" d="M249,107a5,5,0,1,0,5-5A5,5,0,0,0,249,107Z"/><path class="cls-12" d="M247,107a7,7,0,1,0,7-7A7,7,0,0,0,247,107Z"/></svg>